<?xml version="1.0" encoding="UTF-8" standalone="no"?>
<!-- Created with Inkscape (http://www.inkscape.org/) -->

<svg
   xmlns:dc="http://purl.org/dc/elements/1.1/"
   xmlns:cc="http://creativecommons.org/ns#"
   xmlns:rdf="http://www.w3.org/1999/02/22-rdf-syntax-ns#"
   xmlns:svg="http://www.w3.org/2000/svg"
   xmlns="http://www.w3.org/2000/svg"
   xmlns:sodipodi="http://sodipodi.sourceforge.net/DTD/sodipodi-0.dtd"
   xmlns:inkscape="http://www.inkscape.org/namespaces/inkscape"
   width="280"
   height="350"
   viewBox="0 0 280.00001 350"
   id="svg2"
   version="1.1"
   inkscape:version="0.91 r13725"
   sodipodi:docname="Maritime Industry Authority.svg">
  <defs
     id="defs4" />
  <sodipodi:namedview
     id="base"
     pagecolor="#ffffff"
     bordercolor="#666666"
     borderopacity="1.0"
     inkscape:pageopacity="0.0"
     inkscape:pageshadow="2"
     inkscape:zoom="0.3609375"
     inkscape:cx="338.39544"
     inkscape:cy="565.91456"
     inkscape:document-units="px"
     inkscape:current-layer="layer1"
     showgrid="false"
     fit-margin-top="0"
     fit-margin-left="0"
     fit-margin-right="0"
     fit-margin-bottom="0"
     units="px"
     inkscape:window-width="1366"
     inkscape:window-height="705"
     inkscape:window-x="-4"
     inkscape:window-y="-4"
     inkscape:window-maximized="1" />
  <metadata
     id="metadata7">
    <rdf:RDF>
      <cc:Work
         rdf:about="">
        <dc:format>image/svg+xml</dc:format>
        <dc:type
           rdf:resource="http://purl.org/dc/dcmitype/StillImage" />
        <dc:title></dc:title>
      </cc:Work>
    </rdf:RDF>
  </metadata>
  <g
     inkscape:label="Layer 1"
     inkscape:groupmode="layer"
     id="layer1"
     transform="translate(-84.2406,-530.40036)">
    <g
       id="g4366"
       transform="matrix(0.50503166,0,0,0.50782822,41.69643,433.30821)">
      <path
         sodipodi:nodetypes="ccccc"
         inkscape:connector-curvature="0"
         id="path4165"
         d="M 636.81454,192.00241 86.589219,191.19093 84.2406,612.54791 c 92.6366,385.7067 503.96897,332.46007 554.42069,-16.65221 z"
         style="fill:#0038a8;fill-opacity:1;fill-rule:evenodd;stroke:none;stroke-width:1px;stroke-linecap:butt;stroke-linejoin:miter;stroke-opacity:1" />
      <path
         inkscape:connector-curvature="0"
         id="path4147"
         d="m 363.68945,814.32812 c -12.79254,-0.11414 -28.52673,5.11822 -41.71875,10.16993 -13.19202,5.0517 -23.5957,10.13281 -23.5957,10.13281 a 6.0006,6.0006 0 1 0 5.26562,10.7832 c 0,0 9.96956,-4.86424 22.6211,-9.70898 12.65154,-4.84474 28.22952,-9.45807 37.32031,-9.37696 8.14064,0.0726 22.28361,4.51079 33.73242,9.13086 11.44882,4.62008 20.45508,9.21485 20.45508,9.21485 a 6.0006,6.0006 0 1 0 5.45508,-10.6875 c 0,0 -9.4344,-4.81764 -21.41992,-9.6543 -11.98552,-4.83666 -26.27285,-9.89823 -38.11524,-10.00391 z"
         style="color:#000000;font-style:normal;font-variant:normal;font-weight:normal;font-stretch:normal;font-size:medium;line-height:normal;font-family:sans-serif;text-indent:0;text-align:start;text-decoration:none;text-decoration-line:none;text-decoration-style:solid;text-decoration-color:#000000;letter-spacing:normal;word-spacing:normal;text-transform:none;direction:ltr;block-progression:tb;writing-mode:lr-tb;baseline-shift:baseline;text-anchor:start;white-space:normal;clip-rule:nonzero;display:inline;overflow:visible;visibility:visible;opacity:1;isolation:auto;mix-blend-mode:normal;color-interpolation:sRGB;color-interpolation-filters:linearRGB;solid-color:#000000;solid-opacity:1;fill:#ffffff;fill-opacity:1;fill-rule:evenodd;stroke:none;stroke-width:12;stroke-linecap:round;stroke-linejoin:round;stroke-miterlimit:4;stroke-dasharray:none;stroke-dashoffset:0;stroke-opacity:1;color-rendering:auto;image-rendering:auto;shape-rendering:auto;text-rendering:auto;enable-background:accumulate" />
      <path
         inkscape:connector-curvature="0"
         id="path4149"
         d="m 257.28516,779.70312 c -7.80511,-0.41008 -15.64347,3.34591 -22.97461,6.70899 -7.33115,3.36308 -13.38086,6.77539 -13.38086,6.77539 a 6.0006499,6.0006499 0 1 0 5.89258,10.45508 c 0,0 5.68392,-3.20101 12.49218,-6.32422 6.64697,-3.04922 14.92362,-5.5245 17.01758,-5.55469 18.21415,4.7522 32.49246,16.85418 55.61328,17.22071 10.8503,1.50236 21.2344,-2.9141 30.55274,-7.06446 9.12055,-4.06227 17.55377,-7.75367 22,-8.04687 6.9727,1.81119 13.77697,5.33156 21.21289,8.77734 7.64697,3.54358 16.11201,6.93084 26.03711,7.02539 9.64525,0.82771 18.48493,-3.29445 26.43359,-7.17187 7.93405,-3.8703 15.29921,-7.54314 19.48828,-8.04297 2.84806,-0.19088 12.98332,2.22528 21.1582,5.11914 8.20853,2.90576 15.1211,5.92187 15.1211,5.92187 a 6.0006,6.0006 0 1 0 4.80273,-10.99804 c 0,0 -7.24651,-3.166 -15.91992,-6.23633 -8.67341,-3.07033 -18.05531,-6.3998 -26.14453,-5.7832 a 6.0006,6.0006 0 0 0 -0.18945,0.0156 c -8.36304,0.90522 -15.94498,5.49524 -23.57813,9.21875 -7.63314,3.72351 -14.98081,6.49734 -20.24804,6.01172 a 6.0006,6.0006 0 0 0 -0.54493,-0.0254 c -7.34318,-0.007 -14.05655,-2.55188 -21.37109,-5.94141 -7.31454,-3.38953 -15.09372,-7.62748 -24.3457,-9.82812 a 6.0006,6.0006 0 0 0 -1.43555,-0.16211 c -9.43476,0.0731 -18.26389,5.13249 -27.35938,9.18359 -9.09548,4.0511 -17.99886,7.1024 -24.3164,6.125 a 6.0006,6.0006 0 0 0 -0.85742,-0.0703 c -19.24565,-0.19296 -32.17293,-11.74375 -54.03321,-17.14063 a 6.0006,6.0006 0 0 0 -1.12304,-0.16797 z"
         style="color:#000000;font-style:normal;font-variant:normal;font-weight:normal;font-stretch:normal;font-size:medium;line-height:normal;font-family:sans-serif;text-indent:0;text-align:start;text-decoration:none;text-decoration-line:none;text-decoration-style:solid;text-decoration-color:#000000;letter-spacing:normal;word-spacing:normal;text-transform:none;direction:ltr;block-progression:tb;writing-mode:lr-tb;baseline-shift:baseline;text-anchor:start;white-space:normal;clip-rule:nonzero;display:inline;overflow:visible;visibility:visible;opacity:1;isolation:auto;mix-blend-mode:normal;color-interpolation:sRGB;color-interpolation-filters:linearRGB;solid-color:#000000;solid-opacity:1;fill:#ffffff;fill-opacity:1;fill-rule:evenodd;stroke:none;stroke-width:12;stroke-linecap:round;stroke-linejoin:round;stroke-miterlimit:4;stroke-dasharray:none;stroke-dashoffset:0;stroke-opacity:1;color-rendering:auto;image-rendering:auto;shape-rendering:auto;text-rendering:auto;enable-background:accumulate" />
      <path
         inkscape:connector-curvature="0"
         id="path4151"
         d="m 234.48438,750.61328 c -9.09857,0.48771 -19.3976,4.65302 -28.07618,8.53516 -8.67858,3.88214 -15.48242,7.66797 -15.48242,7.66797 a 6.0006,6.0006 0 1 0 5.83008,10.48828 c 0,0 6.39253,-3.55287 14.55273,-7.20313 8.16021,-3.65026 18.34357,-7.21239 23.81836,-7.50586 4.61874,-0.24757 13.87867,1.8838 21.35157,4.30664 7.47289,2.42285 13.39062,4.92383 13.39062,4.92383 a 6.0006,6.0006 0 0 0 0.0566,0.0254 c 0,0 5.63101,2.317 12.73828,4.63672 7.10727,2.31972 15.47952,4.78448 22.76172,4.81836 7.02943,0.0327 15.05993,-2.25854 21.88477,-4.41602 6.82484,-2.15747 12.23632,-4.32617 12.23633,-4.32617 a 6.0006,6.0006 0 0 0 0.0351,-0.0137 c 0,0 4.00754,-1.63364 9.08203,-3.28125 5.07449,-1.64761 11.42194,-3.17351 14.33594,-3.20117 4.67702,-0.0444 13.61983,2.00263 20.84961,4.19922 7.22978,2.19658 12.95117,4.40234 12.95117,4.40234 l -0.38476,-0.16406 c 0,0 4.26796,2.00004 9.67187,3.99805 5.40391,1.998 11.70849,4.17849 17.79883,4.1875 6.93062,0.0102 14.44923,-2.5162 20.85547,-4.86329 6.38317,-2.33862 11.38756,-4.66478 11.42383,-4.68164 l 0.041,-0.0176 c 0.0364,-0.0166 5.30961,-2.41259 12.0293,-4.78321 6.74284,-2.37878 15.14091,-4.49815 19.17578,-4.35937 3.92171,0.13488 11.99569,2.76722 18.42773,5.54687 6.43205,2.77966 11.47657,5.50782 11.47657,5.50782 a 6.0006,6.0006 0 1 0 5.71289,-10.55274 c 0,0 -5.46587,-2.96208 -12.42774,-5.9707 -6.96186,-3.00862 -15.16453,-6.26167 -22.77539,-6.52344 -7.72401,-0.26566 -16.29489,2.46435 -23.58203,5.03516 -7.28714,2.57081 -13.05078,5.19726 -13.05078,5.19726 a 6.0006,6.0006 0 0 0 -0.041,0.0195 c 0,0 -4.64643,2.15555 -10.53906,4.31446 -5.89263,2.15891 -13.26797,4.13593 -16.70898,4.13086 -2.60069,-0.004 -8.76344,-1.6331 -13.6543,-3.44141 -4.89086,-1.80831 -8.74414,-3.61133 -8.74414,-3.61133 a 6.0006,6.0006 0 0 0 -0.38477,-0.16406 c 0,0 -6.098,-2.3545 -13.7832,-4.68945 -7.6852,-2.33495 -16.75348,-4.78987 -24.45117,-4.7168 -5.93467,0.0563 -12.40054,1.99251 -17.92774,3.78711 -5.52719,1.79459 -9.9082,3.58203 -9.9082,3.58203 -0.0313,0.0125 -5.01533,2.00685 -11.35742,4.01172 -6.36195,2.01114 -14.26457,3.87579 -18.21094,3.85742 -4.19917,-0.0195 -12.44994,-2.05747 -19.0957,-4.22656 -6.64576,-2.16909 -11.89649,-4.32813 -11.89649,-4.32813 l 0.0566,0.0234 c 0,0 -6.3541,-2.69107 -14.36719,-5.28906 -8.01309,-2.59799 -17.45279,-5.31487 -25.69531,-4.87305 z"
         style="color:#000000;font-style:normal;font-variant:normal;font-weight:normal;font-stretch:normal;font-size:medium;line-height:normal;font-family:sans-serif;text-indent:0;text-align:start;text-decoration:none;text-decoration-line:none;text-decoration-style:solid;text-decoration-color:#000000;letter-spacing:normal;word-spacing:normal;text-transform:none;direction:ltr;block-progression:tb;writing-mode:lr-tb;baseline-shift:baseline;text-anchor:start;white-space:normal;clip-rule:nonzero;display:inline;overflow:visible;visibility:visible;opacity:1;isolation:auto;mix-blend-mode:normal;color-interpolation:sRGB;color-interpolation-filters:linearRGB;solid-color:#000000;solid-opacity:1;fill:#ffffff;fill-opacity:1;fill-rule:evenodd;stroke:none;stroke-width:12;stroke-linecap:round;stroke-linejoin:round;stroke-miterlimit:4;stroke-dasharray:none;stroke-dashoffset:0;stroke-opacity:1;color-rendering:auto;image-rendering:auto;shape-rendering:auto;text-rendering:auto;enable-background:accumulate" />
      <path
         inkscape:connector-curvature="0"
         id="path4153"
         d="m 501.62695,724.97852 c -8.56204,-0.22125 -18.17342,3.05543 -26.3164,6.14843 -7.70851,2.92797 -13.47887,5.71669 -14.11524,6.02539 -0.15228,0.0539 -5.21305,1.84681 -11.79101,3.68164 -6.676,1.86218 -14.92797,3.58906 -19.20118,3.53711 -4.66411,-0.0567 -13.43979,-2.12931 -20.53906,-4.29687 -7.09926,-2.16756 -12.71679,-4.3125 -12.71679,-4.3125 l 0.14843,0.0586 c 0,0 -5.30585,-2.1906 -12.08593,-4.36133 -6.78009,-2.17072 -14.88126,-4.46881 -22.11915,-4.40429 -7.37592,0.0657 -16.02551,2.71027 -23.46874,5.19531 -7.44324,2.48504 -13.40821,4.95898 -13.40821,4.95898 a 6.0006,6.0006 0 0 0 -0.0117,0.006 c 0,0 -4.23336,1.76332 -9.59765,3.5625 -5.3643,1.79919 -12.06396,3.50847 -15.26953,3.59571 -5.3886,0.14665 -15.36581,-1.91238 -23.47071,-4.14844 -8.10489,-2.23606 -14.5332,-4.51367 -14.5332,-4.51367 a 6.0006,6.0006 0 0 0 -0.008,-0.002 c 0,0 -7.41623,-2.61912 -16.72852,-5.08398 -9.31229,-2.46486 -20.30865,-4.96252 -29.37891,-4.24414 -9.26834,0.73406 -20.01332,5.03557 -29.05078,9.03711 -9.03745,4.00154 -16.1289,7.85351 -16.1289,7.85351 a 6.0006284,6.0006284 0 1 0 5.72656,10.54688 c 0,0 6.70261,-3.63886 15.25977,-7.42774 8.55715,-3.78887 19.20726,-7.57694 25.14062,-8.04687 5.73527,-0.45424 16.55682,1.5504 25.36133,3.88086 8.8045,2.33046 15.80469,4.79883 15.80469,4.79883 0.007,0.002 6.79589,2.41127 15.34375,4.76953 8.55213,2.35944 18.6606,4.80286 26.99023,4.57617 6.1466,-0.16728 12.95366,-2.26813 18.75781,-4.21484 5.80416,-1.94672 10.40039,-3.86524 10.40039,-3.86524 l -0.0117,0.006 c 0,0 5.61087,-2.32425 12.61328,-4.66211 7.0024,-2.33786 15.66982,-4.54153 19.77539,-4.57812 4.24362,-0.0378 12.07128,1.82132 18.35156,3.83203 6.28028,2.0107 11.16602,4.02539 11.16601,4.02539 a 6.0006,6.0006 0 0 0 0.14844,0.0586 c 0,0 5.9687,2.28435 13.49414,4.58203 7.52544,2.29768 16.41205,4.72736 23.89844,4.81836 7.09548,0.0863 15.46706,-1.99661 22.57227,-3.97851 7.1052,-1.9819 12.75195,-3.98633 12.75195,-3.98633 a 6.0006,6.0006 0 0 0 0.62891,-0.26367 c 0,0 5.97954,-2.91855 13.5625,-5.79883 7.58295,-2.88028 17.01945,-5.49123 21.74414,-5.36914 5.45619,0.14099 15.77708,3.61466 24.04882,7.25586 8.27175,3.6412 14.75586,7.23242 14.75586,7.23242 a 6.0006,6.0006 0 1 0 5.81836,-10.49609 c 0,0 -6.92019,-3.83619 -15.74023,-7.71875 -8.82005,-3.88257 -19.27871,-8.02938 -28.57227,-8.26953 z"
         style="color:#000000;font-style:normal;font-variant:normal;font-weight:normal;font-stretch:normal;font-size:medium;line-height:normal;font-family:sans-serif;text-indent:0;text-align:start;text-decoration:none;text-decoration-line:none;text-decoration-style:solid;text-decoration-color:#000000;letter-spacing:normal;word-spacing:normal;text-transform:none;direction:ltr;block-progression:tb;writing-mode:lr-tb;baseline-shift:baseline;text-anchor:start;white-space:normal;clip-rule:nonzero;display:inline;overflow:visible;visibility:visible;opacity:1;isolation:auto;mix-blend-mode:normal;color-interpolation:sRGB;color-interpolation-filters:linearRGB;solid-color:#000000;solid-opacity:1;fill:#ffffff;fill-opacity:1;fill-rule:evenodd;stroke:none;stroke-width:12;stroke-linecap:round;stroke-linejoin:round;stroke-miterlimit:4;stroke-dasharray:none;stroke-dashoffset:0;stroke-opacity:1;color-rendering:auto;image-rendering:auto;shape-rendering:auto;text-rendering:auto;enable-background:accumulate" />
      <path
         sodipodi:nodetypes="cccccccccccccccccccccccccccccccc"
         inkscape:connector-curvature="0"
         id="path4155"
         d="m 191.16883,566.12844 0.69264,99.04762 21.47186,-19.39394 c 36.75936,47.7792 95.14537,73.40621 149.61039,73.41991 62.83439,-4.9206 108.40378,-23.8406 146.14719,-73.41991 l 19.39394,24.93506 1.38528,-106.66666 -97.66234,0 23.54978,31.86147 c -17.12973,27.19114 -29.46707,43.94845 -60.25973,58.18182 l -0.69265,-232.72728 66.49351,0 1.38528,124.67533 68.57143,-1e-5 -2.07792,-173.16017 -67.87879,-1.38528 0,24.93507 -65.80086,0.69264 0.69264,-24.24243 -69.95671,0.69265 0,22.85714 -67.87879,0.69264 0,-22.1645 -68.57143,-0.69264 0,171.77489 70.64935,0 -2.07792,-126.75325 68.57143,0 0.69264,234.8052 c -29.82782,-17.00404 -43.56716,-30.69058 -61.64502,-60.25974 l 24.24242,-27.01299 z"
         style="fill:#ffffff;fill-opacity:1;fill-rule:evenodd;stroke:none;stroke-width:1px;stroke-linecap:butt;stroke-linejoin:miter;stroke-opacity:1" />
      <path
         inkscape:connector-curvature="0"
         id="path4157"
         d="m 605.32617,215.07812 -489.00586,2.77149 a 7.50075,7.50075 0 0 0 -7.45703,7.43555 l -3.34375,389.33398 a 7.50075,7.50075 0 0 0 0.20117,1.78711 c 38.28517,162.07719 148.10951,245.36186 257.80664,243.29492 109.69714,-2.06693 217.3415,-89.52555 251.39258,-260.34375 a 7.50075,7.50075 0 0 0 0.14453,-1.50976 l -2.19726,-375.3125 a 7.50075,7.50075 0 0 0 -7.54102,-7.45704 z m -7.41406,15.04297 2.14648,366.94922 C 566.85122,762.50462 465.06114,842.78467 363.24414,844.70312 261.464,846.62089 157.77546,770.18951 120.52734,613.73438 l 3.27149,-380.92579 474.11328,-2.6875 z"
         style="color:#000000;font-style:normal;font-variant:normal;font-weight:normal;font-stretch:normal;font-size:medium;line-height:normal;font-family:sans-serif;text-indent:0;text-align:start;text-decoration:none;text-decoration-line:none;text-decoration-style:solid;text-decoration-color:#000000;letter-spacing:normal;word-spacing:normal;text-transform:none;direction:ltr;block-progression:tb;writing-mode:lr-tb;baseline-shift:baseline;text-anchor:start;white-space:normal;clip-rule:nonzero;display:inline;overflow:visible;visibility:visible;opacity:1;isolation:auto;mix-blend-mode:normal;color-interpolation:sRGB;color-interpolation-filters:linearRGB;solid-color:#000000;solid-opacity:1;fill:#ffffff;fill-opacity:1;fill-rule:evenodd;stroke:none;stroke-width:15;stroke-linecap:round;stroke-linejoin:round;stroke-miterlimit:4;stroke-dasharray:none;stroke-dashoffset:0;stroke-opacity:1;color-rendering:auto;image-rendering:auto;shape-rendering:auto;text-rendering:auto;enable-background:accumulate" />
      <path
         inkscape:connector-curvature="0"
         id="path4159"
         d="m 115.60156,337.63281 -0.0312,15 490.75196,0.98047 0.0293,-15 -490.75,-0.98047 z"
         style="color:#000000;font-style:normal;font-variant:normal;font-weight:normal;font-stretch:normal;font-size:medium;line-height:normal;font-family:sans-serif;text-indent:0;text-align:start;text-decoration:none;text-decoration-line:none;text-decoration-style:solid;text-decoration-color:#000000;letter-spacing:normal;word-spacing:normal;text-transform:none;direction:ltr;block-progression:tb;writing-mode:lr-tb;baseline-shift:baseline;text-anchor:start;white-space:normal;clip-rule:nonzero;display:inline;overflow:visible;visibility:visible;opacity:1;isolation:auto;mix-blend-mode:normal;color-interpolation:sRGB;color-interpolation-filters:linearRGB;solid-color:#000000;solid-opacity:1;fill:#ffffff;fill-opacity:1;fill-rule:evenodd;stroke:none;stroke-width:15;stroke-linecap:butt;stroke-linejoin:miter;stroke-miterlimit:4;stroke-dasharray:none;stroke-dashoffset:0;stroke-opacity:1;color-rendering:auto;image-rendering:auto;shape-rendering:auto;text-rendering:auto;enable-background:accumulate" />
      <g
         id="text4161"
         style="font-style:normal;font-variant:normal;font-weight:normal;font-stretch:normal;font-size:52.37765121px;line-height:125%;font-family:'Swis721 Blk BT';-inkscape-font-specification:'Swis721 Blk BT';text-align:start;letter-spacing:-1.04755306px;word-spacing:0px;writing-mode:lr-tb;text-anchor:start;fill:#ffffff;fill-opacity:1;stroke:none;stroke-width:1px;stroke-linecap:butt;stroke-linejoin:miter;stroke-opacity:1"
         transform="scale(1.047553,0.95460567)">
        <path
           id="path4342"
           style="font-style:normal;font-variant:normal;font-weight:bold;font-stretch:normal;font-size:111.30250549px;font-family:'Swis721 BT';-inkscape-font-specification:'Swis721 BT Bold';fill:#ffffff;fill-opacity:1"
           d="m 129.9587,333.83981 0,-80.05302 24.34742,0 15.92365,60.92291 15.70626,-60.92291 24.45612,0 0,80.05302 -15.43453,0 0,-64.56415 -16.24973,64.56415 -16.84754,0 -16.46712,-64.56415 0,64.56415 -15.43453,0 z"
           inkscape:connector-curvature="0" />
        <path
           id="path4344"
           style="font-style:normal;font-variant:normal;font-weight:bold;font-stretch:normal;font-size:111.30250549px;font-family:'Swis721 BT';-inkscape-font-specification:'Swis721 BT Bold';fill:#ffffff;fill-opacity:1"
           d="m 255.86556,269.81913 -11.08677,34.07553 22.22789,0 -11.14112,-34.07553 z m -9.56505,-16.03234 19.02142,0 28.85822,80.05302 -17.28233,0 -5.43469,-16.46712 -31.03209,0 -5.27165,16.46712 -17.33667,0 28.47779,-80.05302 z"
           inkscape:connector-curvature="0" />
        <path
           id="path4346"
           style="font-style:normal;font-variant:normal;font-weight:bold;font-stretch:normal;font-size:111.30250549px;font-family:'Swis721 BT';-inkscape-font-specification:'Swis721 BT Bold';fill:#ffffff;fill-opacity:1"
           d="m 317.8061,288.78621 19.3475,0 q 6.30425,0 9.23898,-2.5543 2.98908,-2.55431 2.98908,-8.04335 0,-5.2173 -2.88038,-7.8803 -2.88039,-2.71735 -8.58682,-2.71735 l -20.10836,0 0,21.1953 z m -16.46712,45.0536 0,-80.05302 38.80371,0 q 13.0976,0 19.40185,5.59773 6.30424,5.59774 6.30424,17.11929 0,7.33683 -3.09777,12.22805 -3.04343,4.89123 -8.80421,6.68468 5.21731,1.84779 7.39119,5.65208 2.22822,3.80428 2.5543,11.84763 l 0.32608,9.45636 q 0,0.1087 0,0.32608 0.16304,7.1738 3.09778,8.69551 l 0,2.44561 -18.04318,0 q -0.86955,-1.68475 -1.35867,-4.13036 -0.43478,-2.49996 -0.54347,-5.92382 l -0.21739,-8.42377 q -0.27174,-7.44553 -2.82604,-10.05418 -2.49996,-2.60866 -9.07594,-2.60866 l -17.44536,0 0,31.14079 -16.46712,0 z"
           inkscape:connector-curvature="0" />
        <path
           id="path4348"
           style="font-style:normal;font-variant:normal;font-weight:bold;font-stretch:normal;font-size:111.30250549px;font-family:'Swis721 BT';-inkscape-font-specification:'Swis721 BT Bold';fill:#ffffff;fill-opacity:1"
           d="m 380.39881,333.83981 0,-80.05302 16.46712,0 0,80.05302 -16.46712,0 z"
           inkscape:connector-curvature="0" />
        <path
           id="path4350"
           style="font-style:normal;font-variant:normal;font-weight:bold;font-stretch:normal;font-size:111.30250549px;font-family:'Swis721 BT';-inkscape-font-specification:'Swis721 BT Bold';fill:#ffffff;fill-opacity:1"
           d="m 412.93764,333.83981 0,-80.05302 17.22798,0 32.49946,54.99909 0,-54.99909 16.24973,0 0,80.05302 -17.01059,0 -32.71685,-54.99909 0,54.99909 -16.24973,0 z"
           inkscape:connector-curvature="0" />
        <path
           id="path4352"
           style="font-style:normal;font-variant:normal;font-weight:bold;font-stretch:normal;font-size:111.30250549px;font-family:'Swis721 BT';-inkscape-font-specification:'Swis721 BT Bold';fill:#ffffff;fill-opacity:1"
           d="m 524.27954,269.81913 -11.08677,34.07553 22.22789,0 -11.14112,-34.07553 z m -9.56506,-16.03234 19.02143,0 28.85822,80.05302 -17.28233,0 -5.43469,-16.46712 -31.03209,0 -5.27166,16.46712 -17.33667,0 28.47779,-80.05302 z"
           inkscape:connector-curvature="0" />
      </g>
    </g>
  </g>
</svg>
